<svg xmlns="http://www.w3.org/2000/svg" viewBox="0 0 240 240">
<ellipse cx="108" cy="228" rx="64" ry="8" fill="#0E3B5C" opacity="0.12"></ellipse>
<ellipse cx="86" cy="206" rx="18" ry="9" fill="#0E3B5C"></ellipse>
<ellipse cx="130" cy="206" rx="18" ry="9" fill="#0E3B5C"></ellipse>
<path d="M34 128 Q14 150 26 172" stroke="#0E3B5C" stroke-width="5" fill="none" stroke-linecap="round"></path>
<circle cx="108" cy="118" r="78" fill="#FFD23F" stroke="#0E3B5C" stroke-width="5"></circle>
<rect x="58" y="88" width="42" height="28" rx="9" fill="#0E3B5C"></rect>
<rect x="116" y="88" width="42" height="28" rx="9" fill="#0E3B5C"></rect>
<path d="M100 98 Q108 91 116 98" stroke="#0E3B5C" stroke-width="5" fill="none"></path>
<path d="M58 96 L36 90 M158 96 L180 90" stroke="#0E3B5C" stroke-width="5" stroke-linecap="round"></path>
<path d="M66 95 L78 95 M124 95 L136 95" stroke="#FFFFFF" stroke-width="3" stroke-linecap="round" opacity="0.7"></path>
<path d="M86 150 Q110 160 132 146" stroke="#0E3B5C" stroke-width="5" fill="none" stroke-linecap="round"></path>
<path d="M180 140 h34 v46 l-5.67 6 l-5.67 -6 l-5.67 6 l-5.67 -6 l-5.67 6 l-5.67 -6 z" fill="#FAF7EF" stroke="#0E3B5C" stroke-width="3" stroke-linejoin="round"></path>
<path d="M187 151 h20 M187 159 h14 M187 167 h20" stroke="#0E3B5C" stroke-width="2.5" stroke-linecap="round"></path>
<path d="M180 122 Q194 132 186 146" stroke="#0E3B5C" stroke-width="5" fill="none" stroke-linecap="round"></path>
<circle cx="184" cy="148" r="7" fill="#FFD23F" stroke="#0E3B5C" stroke-width="3"></circle>
</svg>